<svg width="28" height="28" viewBox="0 0 28 28" fill="none" xmlns="http://www.w3.org/2000/svg">
<mask id="mask0" mask-type="alpha" maskUnits="userSpaceOnUse" x="0" y="0" width="28" height="28">
<rect width="28" height="28" fill="#C4C4C4"/>
</mask>
<g mask="url(#mask0)">
<path d="M15.2728 2.54545C15.2728 9.57453 9.57459 15.2727 2.54551 15.2727C-4.48357 15.2727 -10.1818 9.57453 -10.1818 2.54545C-10.1818 -4.48363 -4.48357 -10.1818 2.54551 -10.1818C9.57459 -10.1818 15.2728 -4.48363 15.2728 2.54545Z" fill="#EFEFEF"/>
<path d="M38.1819 2.54545C38.1819 9.57453 32.4837 15.2727 25.4546 15.2727C18.4255 15.2727 12.7273 9.57453 12.7273 2.54545C12.7273 -4.48363 18.4255 -10.1818 25.4546 -10.1818C32.4837 -10.1818 38.1819 -4.48363 38.1819 2.54545Z" fill="#EFEFEF"/>
<path d="M15.2728 25.4545C15.2728 32.4836 9.57459 38.1818 2.54551 38.1818C-4.48357 38.1818 -10.1818 32.4836 -10.1818 25.4545C-10.1818 18.4255 -4.48357 12.7273 2.54551 12.7273C9.57459 12.7273 15.2728 18.4255 15.2728 25.4545Z" fill="#EFEFEF"/>
<path d="M38.1819 25.4545C38.1819 32.4836 32.4837 38.1818 25.4546 38.1818C18.4255 38.1818 12.7273 32.4836 12.7273 25.4545C12.7273 18.4255 18.4255 12.7273 25.4546 12.7273C32.4837 12.7273 38.1819 18.4255 38.1819 25.4545Z" fill="#EFEFEF"/>
</g>
</svg>
